<?xml version="1.0" encoding="UTF-8" standalone="no"?>
<!-- Created with Inkscape (http://www.inkscape.org/) -->

<svg
   xmlns:dc="http://purl.org/dc/elements/1.1/"
   xmlns:cc="http://creativecommons.org/ns#"
   xmlns:rdf="http://www.w3.org/1999/02/22-rdf-syntax-ns#"
   xmlns:svg="http://www.w3.org/2000/svg"
   xmlns="http://www.w3.org/2000/svg"
   xmlns:sodipodi="http://sodipodi.sourceforge.net/DTD/sodipodi-0.dtd"
   xmlns:inkscape="http://www.inkscape.org/namespaces/inkscape"
   id="svg2"
   version="1.1"
   inkscape:version="0.48.3.1 r9886"
   width="450"
   height="315"
   xml:space="preserve"
   sodipodi:docname="E2Q2Marked.eps"><metadata
     id="metadata8"><rdf:RDF><cc:Work
         rdf:about=""><dc:format>image/svg+xml</dc:format><dc:type
           rdf:resource="http://purl.org/dc/dcmitype/StillImage" /><dc:title></dc:title></cc:Work></rdf:RDF></metadata><defs
     id="defs6"><marker
       inkscape:stockid="TriangleOutL"
       orient="auto"
       refY="0.0"
       refX="0.0"
       id="TriangleOutL"
       style="overflow:visible"><path
         id="path4079"
         d="M 5.77,0.0 L -2.88,5.0 L -2.88,-5.0 L 5.77,0.0 z "
         style="fill-rule:evenodd;stroke:#000000;stroke-width:1.0pt"
         transform="scale(0.8)" /></marker><marker
       inkscape:stockid="Arrow2Lend"
       orient="auto"
       refY="0.0"
       refX="0.0"
       id="Arrow2Lend"
       style="overflow:visible;"><path
         id="path3958"
         style="fill-rule:evenodd;stroke-width:0.62500000;stroke-linejoin:round;"
         d="M 8.7185878,4.0337352 L -2.2072895,0.016013256 L 8.7185884,-4.0017078 C 6.9730900,-1.6296469 6.9831476,1.6157441 8.7185878,4.0337352 z "
         transform="scale(1.1) rotate(180) translate(1,0)" /></marker><marker
       inkscape:stockid="Arrow1Lend"
       orient="auto"
       refY="0.0"
       refX="0.0"
       id="Arrow1Lend"
       style="overflow:visible;"><path
         id="path3940"
         d="M 0.0,0.0 L 5.0,-5.0 L -12.5,0.0 L 5.0,5.0 L 0.0,0.0 z "
         style="fill-rule:evenodd;stroke:#000000;stroke-width:1.0pt;"
         transform="scale(0.8) rotate(180) translate(12.5,0)" /></marker><marker
       inkscape:stockid="TriangleOutL"
       orient="auto"
       refY="0"
       refX="0"
       id="TriangleOutL-1"
       style="overflow:visible"><path
         inkscape:connector-curvature="0"
         id="path4079-9"
         d="m 5.77,0 -8.65,5 0,-10 8.65,5 z"
         style="fill-rule:evenodd;stroke:#000000;stroke-width:1pt"
         transform="scale(0.8,0.8)" /></marker><marker
       inkscape:stockid="TriangleOutL"
       orient="auto"
       refY="0"
       refX="0"
       id="TriangleOutL-0"
       style="overflow:visible"><path
         inkscape:connector-curvature="0"
         id="path4079-3"
         d="m 5.77,0 -8.65,5 0,-10 8.65,5 z"
         style="fill-rule:evenodd;stroke:#000000;stroke-width:1pt"
         transform="scale(0.8,0.8)" /></marker></defs><sodipodi:namedview
     pagecolor="#ffffff"
     bordercolor="#666666"
     borderopacity="1"
     objecttolerance="10"
     gridtolerance="10"
     guidetolerance="10"
     inkscape:pageopacity="0"
     inkscape:pageshadow="2"
     inkscape:window-width="1215"
     inkscape:window-height="1000"
     id="namedview4"
     showgrid="false"
     inkscape:zoom="2.1190756"
     inkscape:cx="144.86193"
     inkscape:cy="162.93959"
     inkscape:window-x="65"
     inkscape:window-y="24"
     inkscape:window-maximized="1"
     inkscape:current-layer="g10" /><g
     id="g10"
     inkscape:groupmode="layer"
     inkscape:label="ink_ext_XXXXXX"
     transform="matrix(1.25,0,0,-1.25,0,315)"><g
       id="g12"
       transform="scale(0.1,0.1)"><path
         d="m 231,140 31.5,0 m 3211,0 -31.5,0"
         style="fill:none;stroke:#000000;stroke-opacity:1;stroke-width:5;stroke-linecap:butt;stroke-linejoin:miter;stroke-miterlimit:3.8;stroke-dasharray:none"
         id="path14" /><g
         id="g16"
         transform="scale(10,10)"><text
           transform="matrix(1,0,0,-1,15.0085,11.6648)"
           id="text18"><tspan
             style="fill:#000000;fill-opacity:1;fill-rule:nonzero;stroke:none;font-family:Helvetica;font-variant:normal;font-weight:normal;font-size:7;writing-mode:lr;-inkscape-font-specification:Helvetica"
             x="0"
             y="0"
             id="tspan20">0</tspan></text>
</g><path
         d="m 231,468 31.5,0 m 3211,0 -31.5,0"
         style="fill:none;stroke:#000000;stroke-opacity:1;stroke-width:5;stroke-linecap:butt;stroke-linejoin:miter;stroke-miterlimit:3.8;stroke-dasharray:none"
         id="path22" /><g
         id="g24"
         transform="scale(10,10)"><text
           transform="matrix(1,0,0,-1,11.1167,44.4648)"
           id="text26"><tspan
             style="fill:#000000;fill-opacity:1;fill-rule:nonzero;stroke:none;font-family:Helvetica;font-variant:normal;font-weight:normal;font-size:7;writing-mode:lr;-inkscape-font-specification:Helvetica"
             x="0 3.892"
             y="0"
             sodipodi:role="line"
             id="tspan28">10</tspan></text>
</g><path
         d="m 231,796 31.5,0 m 3211,0 -31.5,0"
         style="fill:none;stroke:#000000;stroke-opacity:1;stroke-width:5;stroke-linecap:butt;stroke-linejoin:miter;stroke-miterlimit:3.8;stroke-dasharray:none"
         id="path30" /><g
         id="g32"
         transform="scale(10,10)"><text
           transform="matrix(1,0,0,-1,11.1167,77.2648)"
           id="text34"><tspan
             style="fill:#000000;fill-opacity:1;fill-rule:nonzero;stroke:none;font-family:Helvetica;font-variant:normal;font-weight:normal;font-size:7;writing-mode:lr;-inkscape-font-specification:Helvetica"
             x="0 3.892"
             y="0"
             sodipodi:role="line"
             id="tspan36">20</tspan></text>
</g><path
         d="m 231,1124 31.5,0 m 3211,0 -31.5,0"
         style="fill:none;stroke:#000000;stroke-opacity:1;stroke-width:5;stroke-linecap:butt;stroke-linejoin:miter;stroke-miterlimit:3.8;stroke-dasharray:none"
         id="path38" /><g
         id="g40"
         transform="scale(10,10)"><text
           transform="matrix(1,0,0,-1,11.1167,110.065)"
           id="text42"><tspan
             style="fill:#000000;fill-opacity:1;fill-rule:nonzero;stroke:none;font-family:Helvetica;font-variant:normal;font-weight:normal;font-size:7;writing-mode:lr;-inkscape-font-specification:Helvetica"
             x="0 3.892"
             y="0"
             sodipodi:role="line"
             id="tspan44">30</tspan></text>
</g><path
         d="m 231,1451.5 31.5,0 m 3211,0 -31.5,0"
         style="fill:none;stroke:#000000;stroke-opacity:1;stroke-width:5;stroke-linecap:butt;stroke-linejoin:miter;stroke-miterlimit:3.8;stroke-dasharray:none"
         id="path46" /><g
         id="g48"
         transform="scale(10,10)"><text
           transform="matrix(1,0,0,-1,11.1167,142.815)"
           id="text50"><tspan
             style="fill:#000000;fill-opacity:1;fill-rule:nonzero;stroke:none;font-family:Helvetica;font-variant:normal;font-weight:normal;font-size:7;writing-mode:lr;-inkscape-font-specification:Helvetica"
             x="0 3.892"
             y="0"
             sodipodi:role="line"
             id="tspan52">40</tspan></text>
</g><path
         d="m 231,1779.5 31.5,0 m 3211,0 -31.5,0"
         style="fill:none;stroke:#000000;stroke-opacity:1;stroke-width:5;stroke-linecap:butt;stroke-linejoin:miter;stroke-miterlimit:3.8;stroke-dasharray:none"
         id="path54" /><g
         id="g56"
         transform="scale(10,10)"><text
           transform="matrix(1,0,0,-1,11.1167,175.615)"
           id="text58"><tspan
             style="fill:#000000;fill-opacity:1;fill-rule:nonzero;stroke:none;font-family:Helvetica;font-variant:normal;font-weight:normal;font-size:7;writing-mode:lr;-inkscape-font-specification:Helvetica"
             x="0 3.892"
             y="0"
             sodipodi:role="line"
             id="tspan60">50</tspan></text>
</g><path
         d="m 231,2107.5 31.5,0 m 3211,0 -31.5,0"
         style="fill:none;stroke:#000000;stroke-opacity:1;stroke-width:5;stroke-linecap:butt;stroke-linejoin:miter;stroke-miterlimit:3.8;stroke-dasharray:none"
         id="path62" /><g
         id="g64"
         transform="scale(10,10)"><text
           transform="matrix(1,0,0,-1,11.1167,208.415)"
           id="text66"><tspan
             style="fill:#000000;fill-opacity:1;fill-rule:nonzero;stroke:none;font-family:Helvetica;font-variant:normal;font-weight:normal;font-size:7;writing-mode:lr;-inkscape-font-specification:Helvetica"
             x="0 3.892"
             y="0"
             sodipodi:role="line"
             id="tspan68">60</tspan></text>
</g><path
         d="m 231,2435.5 31.5,0 m 3211,0 -31.5,0"
         style="fill:none;stroke:#000000;stroke-opacity:1;stroke-width:5;stroke-linecap:butt;stroke-linejoin:miter;stroke-miterlimit:3.8;stroke-dasharray:none"
         id="path70" /><g
         id="g72"
         transform="scale(10,10)"><text
           transform="matrix(1,0,0,-1,11.1167,241.215)"
           id="text74"><tspan
             style="fill:#000000;fill-opacity:1;fill-rule:nonzero;stroke:none;font-family:Helvetica;font-variant:normal;font-weight:normal;font-size:7;writing-mode:lr;-inkscape-font-specification:Helvetica"
             x="0 3.892"
             y="0"
             sodipodi:role="line"
             id="tspan76">70</tspan></text>
</g><path
         d="m 231,140 0,31.5 m 0,2264 0,-31.5"
         style="fill:none;stroke:#000000;stroke-opacity:1;stroke-width:5;stroke-linecap:butt;stroke-linejoin:miter;stroke-miterlimit:3.8;stroke-dasharray:none"
         id="path78" /><g
         id="g80"
         transform="scale(10,10)"><text
           transform="matrix(1,0,0,-1,22.1272,4.66484)"
           id="text82"><tspan
             style="fill:#000000;fill-opacity:1;fill-rule:nonzero;stroke:none;font-family:Helvetica;font-variant:normal;font-weight:normal;font-size:7;writing-mode:lr;-inkscape-font-specification:Helvetica"
             x="0"
             y="0"
             id="tspan84">0</tspan></text>
</g><path
         d="m 555.5,140 0,31.5 m 0,2264 0,-31.5"
         style="fill:none;stroke:#000000;stroke-opacity:1;stroke-width:5;stroke-linecap:butt;stroke-linejoin:miter;stroke-miterlimit:3.8;stroke-dasharray:none"
         id="path86" /><g
         id="g88"
         transform="scale(10,10)"><text
           transform="matrix(1,0,0,-1,54.5773,4.66484)"
           id="text90"><tspan
             style="fill:#000000;fill-opacity:1;fill-rule:nonzero;stroke:none;font-family:Helvetica;font-variant:normal;font-weight:normal;font-size:7;writing-mode:lr;-inkscape-font-specification:Helvetica"
             x="0"
             y="0"
             id="tspan92">2</tspan></text>
</g><path
         d="m 879.5,140 0,31.5 m 0,2264 0,-31.5"
         style="fill:none;stroke:#000000;stroke-opacity:1;stroke-width:5;stroke-linecap:butt;stroke-linejoin:miter;stroke-miterlimit:3.8;stroke-dasharray:none"
         id="path94" /><g
         id="g96"
         transform="scale(10,10)"><text
           transform="matrix(1,0,0,-1,86.9772,4.66484)"
           id="text98"><tspan
             style="fill:#000000;fill-opacity:1;fill-rule:nonzero;stroke:none;font-family:Helvetica;font-variant:normal;font-weight:normal;font-size:7;writing-mode:lr;-inkscape-font-specification:Helvetica"
             x="0"
             y="0"
             id="tspan100">4</tspan></text>
</g><path
         d="m 1204,140 0,31.5 m 0,2264 0,-31.5"
         style="fill:none;stroke:#000000;stroke-opacity:1;stroke-width:5;stroke-linecap:butt;stroke-linejoin:miter;stroke-miterlimit:3.8;stroke-dasharray:none"
         id="path102" /><g
         id="g104"
         transform="scale(10,10)"><text
           transform="matrix(1,0,0,-1,119.427,4.66484)"
           id="text106"><tspan
             style="fill:#000000;fill-opacity:1;fill-rule:nonzero;stroke:none;font-family:Helvetica;font-variant:normal;font-weight:normal;font-size:7;writing-mode:lr;-inkscape-font-specification:Helvetica"
             x="0"
             y="0"
             id="tspan108">6</tspan></text>
</g><path
         d="m 1528,140 0,31.5 m 0,2264 0,-31.5"
         style="fill:none;stroke:#000000;stroke-opacity:1;stroke-width:5;stroke-linecap:butt;stroke-linejoin:miter;stroke-miterlimit:3.8;stroke-dasharray:none"
         id="path110" /><g
         id="g112"
         transform="scale(10,10)"><text
           transform="matrix(1,0,0,-1,151.827,4.66484)"
           id="text114"><tspan
             style="fill:#000000;fill-opacity:1;fill-rule:nonzero;stroke:none;font-family:Helvetica;font-variant:normal;font-weight:normal;font-size:7;writing-mode:lr;-inkscape-font-specification:Helvetica"
             x="0"
             y="0"
             id="tspan116">8</tspan></text>
</g><path
         d="m 1852.5,140 0,31.5 m 0,2264 0,-31.5"
         style="fill:none;stroke:#000000;stroke-opacity:1;stroke-width:5;stroke-linecap:butt;stroke-linejoin:miter;stroke-miterlimit:3.8;stroke-dasharray:none"
         id="path118" /><g
         id="g120"
         transform="scale(10,10)"><text
           transform="matrix(1,0,0,-1,182.332,4.66484)"
           id="text122"><tspan
             style="fill:#000000;fill-opacity:1;fill-rule:nonzero;stroke:none;font-family:Helvetica;font-variant:normal;font-weight:normal;font-size:7;writing-mode:lr;-inkscape-font-specification:Helvetica"
             x="0 3.892"
             y="0"
             sodipodi:role="line"
             id="tspan124">10</tspan></text>
</g><path
         d="m 2176.5,140 0,31.5 m 0,2264 0,-31.5"
         style="fill:none;stroke:#000000;stroke-opacity:1;stroke-width:5;stroke-linecap:butt;stroke-linejoin:miter;stroke-miterlimit:3.8;stroke-dasharray:none"
         id="path126" /><g
         id="g128"
         transform="scale(10,10)"><text
           transform="matrix(1,0,0,-1,214.732,4.66484)"
           id="text130"><tspan
             style="fill:#000000;fill-opacity:1;fill-rule:nonzero;stroke:none;font-family:Helvetica;font-variant:normal;font-weight:normal;font-size:7;writing-mode:lr;-inkscape-font-specification:Helvetica"
             x="0 3.892"
             y="0"
             sodipodi:role="line"
             id="tspan132">12</tspan></text>
</g><path
         d="m 2501,140 0,31.5 m 0,2264 0,-31.5"
         style="fill:none;stroke:#000000;stroke-opacity:1;stroke-width:5;stroke-linecap:butt;stroke-linejoin:miter;stroke-miterlimit:3.8;stroke-dasharray:none"
         id="path134" /><g
         id="g136"
         transform="scale(10,10)"><text
           transform="matrix(1,0,0,-1,247.182,4.66484)"
           id="text138"><tspan
             style="fill:#000000;fill-opacity:1;fill-rule:nonzero;stroke:none;font-family:Helvetica;font-variant:normal;font-weight:normal;font-size:7;writing-mode:lr;-inkscape-font-specification:Helvetica"
             x="0 3.892"
             y="0"
             sodipodi:role="line"
             id="tspan140">14</tspan></text>
</g><path
         d="m 2825,140 0,31.5 m 0,2264 0,-31.5"
         style="fill:none;stroke:#000000;stroke-opacity:1;stroke-width:5;stroke-linecap:butt;stroke-linejoin:miter;stroke-miterlimit:3.8;stroke-dasharray:none"
         id="path142" /><g
         id="g144"
         transform="scale(10,10)"><text
           transform="matrix(1,0,0,-1,279.582,4.66484)"
           id="text146"><tspan
             style="fill:#000000;fill-opacity:1;fill-rule:nonzero;stroke:none;font-family:Helvetica;font-variant:normal;font-weight:normal;font-size:7;writing-mode:lr;-inkscape-font-specification:Helvetica"
             x="0 3.892"
             y="0"
             sodipodi:role="line"
             id="tspan148">16</tspan></text>
</g><path
         d="m 3149.5,140 0,31.5 m 0,2264 0,-31.5"
         style="fill:none;stroke:#000000;stroke-opacity:1;stroke-width:5;stroke-linecap:butt;stroke-linejoin:miter;stroke-miterlimit:3.8;stroke-dasharray:none"
         id="path150" /><g
         id="g152"
         transform="scale(10,10)"><text
           transform="matrix(1,0,0,-1,312.032,4.66484)"
           id="text154"><tspan
             style="fill:#000000;fill-opacity:1;fill-rule:nonzero;stroke:none;font-family:Helvetica;font-variant:normal;font-weight:normal;font-size:7;writing-mode:lr;-inkscape-font-specification:Helvetica"
             x="0 3.892"
             y="0"
             sodipodi:role="line"
             id="tspan156">18</tspan></text>
</g><path
         d="m 3473.5,140 0,31.5 m 0,2264 0,-31.5"
         style="fill:none;stroke:#000000;stroke-opacity:1;stroke-width:5;stroke-linecap:butt;stroke-linejoin:miter;stroke-miterlimit:3.8;stroke-dasharray:none"
         id="path158" /><g
         id="g160"
         transform="scale(10,10)"><text
           transform="matrix(1,0,0,-1,344.432,4.66484)"
           id="text162"><tspan
             style="fill:#000000;fill-opacity:1;fill-rule:nonzero;stroke:none;font-family:Helvetica;font-variant:normal;font-weight:normal;font-size:7;writing-mode:lr;-inkscape-font-specification:Helvetica"
             x="0 3.892"
             y="0"
             sodipodi:role="line"
             id="tspan164">20</tspan></text>
</g><path
         d="m 231,140 3242.5,0 0,2295.5 -3242.5,0 0,-2295.5 z"
         style="fill:none;stroke:#000000;stroke-opacity:1;stroke-width:5;stroke-linecap:butt;stroke-linejoin:miter;stroke-miterlimit:3.8;stroke-dasharray:none"
         id="path166" /><g
         id="g168"
         transform="scale(10,10)"><text
           transform="matrix(1,0,0,-1,282.602,234.6)"
           id="text170"><tspan
             style="fill:#000000;fill-opacity:1;fill-rule:nonzero;stroke:none;font-family:Helvetica;font-variant:normal;font-weight:normal;font-size:7;writing-mode:lr;-inkscape-font-specification:Helvetica"
             x="0 2.485 4.431 6.377 11.431 12.985 16.877 20.769 24.661 29.715"
             y="0"
             sodipodi:role="line"
             id="tspan172">&quot;./window&quot;</tspan></text>
</g><path
         d="m 3190,2369 199.5,0 M 231,173 l 16,32.5 16.5,197 16,262 16.5,182 16,32.5 16.5,53.5 16,49 16,29 16.5,48 16,25.5 16.5,42 16,38.5 16.5,25 16,40.5 16,20.5 16.5,37 16,32.5 16.5,22.5 16,35 16.5,17.5 16,34 16,28.5 16.5,20.5 16,32 16.5,15.5 16,30.5 16,25.5 16.5,19.5 16,29 16.5,14.5 16,28.5 16.5,23 16,18.5 16,27 16.5,13.5 16,26.5 16.5,20.5 16,18 16.5,25.5 16,12.5 16,25 16.5,19 16,17.5 16.5,24 16,12 16.5,23.5 16,17.5 16,17.5 16.5,22.5 16,11.5 16.5,22.5 16,16 16.5,17 16,22 16,10.5 16.5,21 16,11.5 16.5,13 16,10.5 16,10 16.5,-2029 16,32.5 16.5,65.5 16,131.5 16.5,75 16,0 16,-304.5 65,0 16.5,62 16,47.5 16,28 16.5,60 16,30.5 16.5,56.5 16,44.5 16.5,45 16,47.5 16,45 16.5,51.5 16,47 16.5,60 16,41 16.5,50.5 16,42 16,42.5 16.5,47.5 16,30 16.5,40.5 16,32 16.5,35.5 16,39.5 16,25 16.5,34.5 16,27.5 16.5,29.5 16,35 16,22 16.5,30.5 16,23.5 16.5,27.5 16,28 16.5,20 16,17.5 16,17.5 16.5,17.5 16,15.5 16.5,-1397 16,32.5 16.5,131.5 16,140.5 16,31 16.5,30.5 16,34 16.5,29 16,-396.5 16.5,33 16,158 16,31.5 16.5,52 16,36 16.5,61 16,31 16.5,62.5 16,54 16,41 16.5,64 16,30.5 16.5,57.5 16,42 16.5,37 16,49 16,23.5 16.5,45 16,32.5 16.5,32 16,40.5 16,19.5 16.5,38.5 16,27.5 16.5,28 16,35.5 16.5,17.5 16,34 16,23.5 16.5,26 16,32 16.5,16 16,30.5 16.5,20.5 16,25 16,29 16.5,14.5 16,25 16.5,17.5 16,21 16.5,20.5 16,17 16,16 16.5,12.5 16,-1593 16.5,32.5 16,65.5 16.5,131.5 16,87.5 16,57 16.5,31 16,31 16.5,35 16,47 16.5,49 16,53 16,40 16.5,32 16,27.5 16.5,38 16,42.5 16,42.5 16.5,34 16,39.5 16.5,32 16,38 16.5,31 16,32.5 16,30 16.5,30.5 16,31.5 16.5,28.5 16,28 16.5,26 16,28 16,28 16.5,25.5 16,25 16.5,23.5 16,25.5 16.5,25.5"
         style="fill:none;stroke:#ff0000;stroke-opacity:1;stroke-width:2.5;stroke-linecap:butt;stroke-linejoin:miter;stroke-miterlimit:3.8;stroke-dasharray:none"
         id="path174" /><g
         id="g176"
         transform="scale(10,10)"><text
           transform="matrix(1,0,0,-1,286.487,227.6)"
           id="text178"><tspan
             style="fill:#000000;fill-opacity:1;fill-rule:nonzero;stroke:none;font-family:Helvetica;font-variant:normal;font-weight:normal;font-size:7;writing-mode:lr;-inkscape-font-specification:Helvetica"
             x="0 2.485 4.431 6.377 8.323 12.215 14.546 18.438 21.938 25.83"
             y="0"
             sodipodi:role="line"
             id="tspan180">&quot;./thresh&quot;</tspan></text>
</g><path
         d="m 3190,2299 199.5,0 M 231,796 l 972.5,0 16.5,-328 81,0 16,-164 49,0 16,-98.5 502.5,0"
         style="fill:none;stroke:#00ff00;stroke-opacity:1;stroke-width:2.5;stroke-linecap:butt;stroke-linejoin:miter;stroke-miterlimit:3.8;stroke-dasharray:20,10;stroke-dashoffset:0"
         id="path182" /><path
         d="m 1884.5,205.5 113.5,0 16.5,262.5 113.5,0 16,-98.5 713.5,0 16,98.5 584,0"
         style="fill:none;stroke:#00ff00;stroke-opacity:1;stroke-width:2.5;stroke-linecap:butt;stroke-linejoin:miter;stroke-miterlimit:3.8;stroke-dasharray:20,10;stroke-dashoffset:0"
         id="path184" /><path
         d="m 231,140 3242.5,0 0,2295.5 -3242.5,0 0,-2295.5 z"
         style="fill:none;stroke:#000000;stroke-opacity:1;stroke-width:5;stroke-linecap:butt;stroke-linejoin:miter;stroke-miterlimit:3.8;stroke-dasharray:none"
         id="path186" /></g><path
       style="fill:none;stroke:#000000;stroke-width:0.57147819px;stroke-linecap:butt;stroke-linejoin:miter;stroke-opacity:1;marker-end:url(#TriangleOutL)"
       d="m 142.35804,220.28474 -17.55451,0"
       id="path3163"
       inkscape:connector-curvature="0" /><text
       xml:space="preserve"
       style="font-size:10.39999962px;font-style:normal;font-weight:normal;line-height:125%;letter-spacing:0px;word-spacing:0px;fill:#000000;fill-opacity:1;stroke:none;font-family:Sans"
       x="129.1129"
       y="-222.36111"
       id="text5123"
       sodipodi:linespacing="125%"
       transform="scale(1,-1)"><tspan
         sodipodi:role="line"
         id="tspan5125"
         x="129.1129"
         y="-222.36111"
         style="font-size:6.4000001px">Packet loss</tspan></text>
<path
       style="fill:none;stroke:#000000;stroke-width:0.57147819px;stroke-linecap:butt;stroke-linejoin:miter;stroke-opacity:1;marker-end:url(#TriangleOutL)"
       d="m 56.344219,83.514139 -17.554511,0"
       id="path3163-7"
       inkscape:connector-curvature="0" /><text
       xml:space="preserve"
       style="font-size:10.39999962px;font-style:normal;font-weight:normal;line-height:125%;letter-spacing:0px;word-spacing:0px;fill:#000000;fill-opacity:1;stroke:none;font-family:Sans"
       x="43.099079"
       y="-85.590508"
       id="text5123-2"
       sodipodi:linespacing="125%"
       transform="scale(1,-1)"><tspan
         sodipodi:role="line"
         id="tspan5125-6"
         x="43.099079"
         y="-85.590508"
         style="font-size:6.4000001px">Treshold</tspan></text>
<path
       style="fill:none;stroke:#000000;stroke-width:0.57147819px;stroke-linecap:butt;stroke-linejoin:miter;stroke-opacity:1;marker-end:url(#TriangleOutL)"
       d="m 52.568987,53.31229 -17.55451,0"
       id="path3163-1"
       inkscape:connector-curvature="0" /><text
       xml:space="preserve"
       style="font-size:10.39999962px;font-style:normal;font-weight:normal;line-height:125%;letter-spacing:0px;word-spacing:0px;fill:#000000;fill-opacity:1;stroke:none;font-family:Sans"
       x="39.323845"
       y="-55.388657"
       id="text5123-0"
       sodipodi:linespacing="125%"
       transform="scale(1,-1)"><tspan
         sodipodi:role="line"
         id="tspan5125-5"
         x="39.323845"
         y="-55.388657"
         style="font-size:6.4000001px">Slow start</tspan></text>
<text
       xml:space="preserve"
       style="font-size:10.39999962px;font-style:normal;font-weight:normal;line-height:125%;letter-spacing:0px;word-spacing:0px;fill:#000000;fill-opacity:1;stroke:none;font-family:Sans"
       x="123.45006"
       y="-81.544983"
       id="text5172"
       sodipodi:linespacing="125%"
       transform="scale(1,-1)"><tspan
         sodipodi:role="line"
         id="tspan5174"
         x="123.45006"
         y="-81.544983"
         style="font-size:6.4000001px;fill:#00ff00">20</tspan></text>
<text
       xml:space="preserve"
       style="font-size:10.39999962px;font-style:normal;font-weight:normal;line-height:125%;letter-spacing:0px;word-spacing:0px;fill:#000000;fill-opacity:1;stroke:none;font-family:Sans"
       x="129.92538"
       y="-48.258408"
       id="text5172-3"
       sodipodi:linespacing="125%"
       transform="scale(1,-1)"><tspan
         sodipodi:role="line"
         id="tspan5174-9"
         x="129.92538"
         y="-48.258408"
         style="font-size:6.4000001px;fill:#00ff00">10</tspan></text>
<text
       xml:space="preserve"
       style="font-size:13px;font-style:normal;font-weight:normal;line-height:125%;letter-spacing:0px;word-spacing:0px;fill:#000000;fill-opacity:1;stroke:none;font-family:Sans"
       x="171.77303"
       y="273.94437"
       id="text5197"
       sodipodi:linespacing="125%"
       transform="matrix(0.8,0,0,-0.8,0,252)"><tspan
         sodipodi:role="line"
         id="tspan5199"></tspan></text>
<text
       xml:space="preserve"
       style="font-size:10.39999962px;font-style:normal;font-weight:normal;line-height:125%;letter-spacing:0px;word-spacing:0px;fill:#000000;fill-opacity:1;stroke:none;font-family:Sans"
       x="134.716"
       y="-32.024914"
       id="text5172-3-2"
       sodipodi:linespacing="125%"
       transform="scale(1,-1)"><tspan
         sodipodi:role="line"
         id="tspan5174-9-8"
         x="134.716"
         y="-32.024914"
         style="font-size:6.4000001px;fill:#00ff00">5</tspan></text>
</g></svg>